<svg xmlns="http://www.w3.org/2000/svg" xmlns:xlink="http://www.w3.org/1999/xlink" width="500" zoomAndPan="magnify" viewBox="0 0 375 374.999991" height="500" preserveAspectRatio="xMidYMid meet" version="1.0"><defs><g/></defs><g fill="#000000" fill-opacity="1"><g transform="translate(234.263292, 62.824925)"><g><path d="M -211.96875 77.03125 C -208.695312 50.800781 -198.847656 30.625 -182.421875 16.5 C -166.003906 2.375 -144.273438 -4.578125 -117.234375 -4.359375 C -87.921875 -4.117188 -64.515625 6.578125 -47.015625 27.734375 C -29.515625 48.898438 -20.910156 77.09375 -21.203125 112.3125 L -21.390625 136.1875 C -21.578125 159.238281 -25.863281 179.476562 -34.25 196.90625 C -42.632812 214.34375 -54.414062 227.6875 -69.59375 236.9375 C -84.78125 246.195312 -102.316406 250.742188 -122.203125 250.578125 C -148.566406 250.367188 -169.640625 242.835938 -185.421875 227.984375 C -201.203125 213.140625 -210.296875 192.703125 -212.703125 166.671875 L -179.8125 166.9375 C -177.125 186.71875 -171.078125 201.078125 -161.671875 210.015625 C -152.265625 218.960938 -139.035156 223.503906 -121.984375 223.640625 C -101.078125 223.816406 -84.625 216.222656 -72.625 200.859375 C -60.625 185.503906 -54.507812 163.570312 -54.28125 135.0625 L -54.078125 111.03125 C -53.859375 84.101562 -59.304688 62.640625 -70.421875 46.640625 C -81.546875 30.640625 -97.222656 22.554688 -117.453125 22.390625 C -135.628906 22.234375 -149.601562 26.234375 -159.375 34.390625 C -169.15625 42.554688 -175.722656 56.859375 -179.078125 77.296875 Z M -211.96875 77.03125 "/></g></g></g><g fill="#000000" fill-opacity="1"><g transform="translate(151.239262, 312.505252)"><g><path d="M 29.53125 0 L 29.53125 -254.375 L 101.328125 -254.375 C 123.453125 -254.375 143.015625 -249.476562 160.015625 -239.6875 C 177.023438 -229.90625 190.160156 -215.988281 199.421875 -197.9375 C 208.679688 -179.882812 213.367188 -159.15625 213.484375 -135.75 L 213.484375 -119.5 C 213.484375 -95.507812 208.851562 -74.484375 199.59375 -56.421875 C 190.34375 -38.367188 177.125 -24.507812 159.9375 -14.84375 C 142.757812 -5.175781 122.757812 -0.226562 99.9375 0 Z M 63.0625 -226.765625 L 63.0625 -27.421875 L 98.359375 -27.421875 C 124.210938 -27.421875 144.332031 -35.457031 158.71875 -51.53125 C 173.101562 -67.601562 180.296875 -90.492188 180.296875 -120.203125 L 180.296875 -135.046875 C 180.296875 -163.929688 173.507812 -186.378906 159.9375 -202.390625 C 146.375 -218.410156 127.128906 -226.535156 102.203125 -226.765625 Z M 63.0625 -226.765625 "/></g></g></g></svg>