<svg xmlns="http://www.w3.org/2000/svg" version="1.1" xmlns:xlink="http://www.w3.org/1999/xlink" xmlns:svgjs="http://svgjs.dev/svgjs" viewBox="0 0 800 800"><defs><linearGradient x1="50%" y1="0%" x2="50%" y2="100%" id="ffflurry-grad" gradientTransform="rotate(270)"><stop stop-color="hsl(0, 0%, 10%)" stop-opacity="1" offset="0%"></stop><stop stop-color="hsl(225, 73%, 57%)" stop-opacity="1" offset="45%"></stop><stop stop-color="hsl(264, 85%, 49%)" stop-opacity="1" offset="100%"></stop></linearGradient></defs><rect width="100%" height="100%" fill="hsl(0, 0%, 10%)"></rect><g fill="url(#ffflurry-grad)"><rect width="433" height="3" x="-40.5" y="470.5" rx="1.5" transform="rotate(45, 176, 472)" opacity="0.19"></rect><rect width="387" height="3" x="-165.5" y="385.5" rx="1.5" transform="rotate(45, 28, 387)" opacity="0.94"></rect><rect width="655" height="3" x="375.5" y="621.5" rx="1.5" transform="rotate(45, 703, 623)" opacity="0.28"></rect><rect width="27" height="3" x="471.5" y="21.5" rx="1.5" transform="rotate(45, 485, 23)" opacity="0.73"></rect><rect width="50" height="3" x="182" y="389.5" rx="1.5" transform="rotate(45, 207, 391)" opacity="0.35"></rect><rect width="777" height="3" x="238.5" y="500.5" rx="1.5" transform="rotate(45, 627, 502)" opacity="0.20"></rect><rect width="241" height="3" x="624.5" y="730.5" rx="1.5" transform="rotate(45, 745, 732)" opacity="0.59"></rect><rect width="391" height="3" x="141.5" y="458.5" rx="1.5" transform="rotate(45, 337, 460)" opacity="0.08"></rect><rect width="572" height="3" x="-232" y="734.5" rx="1.5" transform="rotate(45, 54, 736)" opacity="0.53"></rect><rect width="429" height="3" x="196.5" y="742.5" rx="1.5" transform="rotate(45, 411, 744)" opacity="0.78"></rect><rect width="505" height="3" x="-41.5" y="750.5" rx="1.5" transform="rotate(45, 211, 752)" opacity="0.43"></rect><rect width="489" height="3" x="79.5" y="711.5" rx="1.5" transform="rotate(45, 324, 713)" opacity="0.11"></rect><rect width="607" height="3" x="-75.5" y="203.5" rx="1.5" transform="rotate(45, 228, 205)" opacity="0.33"></rect><rect width="641" height="3" x="-188.5" y="676.5" rx="1.5" transform="rotate(45, 132, 678)" opacity="0.12"></rect><rect width="376" height="3" x="-104" y="593.5" rx="1.5" transform="rotate(45, 84, 595)" opacity="0.67"></rect><rect width="285" height="3" x="-53.5" y="83.5" rx="1.5" transform="rotate(45, 89, 85)" opacity="0.82"></rect><rect width="192" height="3" x="257" y="22.5" rx="1.5" transform="rotate(45, 353, 24)" opacity="0.85"></rect><rect width="657" height="3" x="103.5" y="409.5" rx="1.5" transform="rotate(45, 432, 411)" opacity="0.62"></rect><rect width="703" height="3" x="225.5" y="209.5" rx="1.5" transform="rotate(45, 577, 211)" opacity="0.51"></rect><rect width="162" height="3" x="203" y="553.5" rx="1.5" transform="rotate(45, 284, 555)" opacity="0.99"></rect><rect width="483" height="3" x="123.5" y="294.5" rx="1.5" transform="rotate(45, 365, 296)" opacity="0.62"></rect><rect width="307" height="3" x="271.5" y="197.5" rx="1.5" transform="rotate(45, 425, 199)" opacity="0.42"></rect><rect width="423" height="3" x="499.5" y="376.5" rx="1.5" transform="rotate(45, 711, 378)" opacity="0.70"></rect><rect width="279" height="3" x="421.5" y="338.5" rx="1.5" transform="rotate(45, 561, 340)" opacity="0.81"></rect><rect width="55" height="3" x="439.5" y="276.5" rx="1.5" transform="rotate(45, 467, 278)" opacity="0.41"></rect><rect width="313" height="3" x="175.5" y="193.5" rx="1.5" transform="rotate(45, 332, 195)" opacity="0.56"></rect><rect width="267" height="3" x="393.5" y="91.5" rx="1.5" transform="rotate(45, 527, 93)" opacity="0.82"></rect><rect width="175" height="3" x="309.5" y="121.5" rx="1.5" transform="rotate(45, 397, 123)" opacity="0.87"></rect><rect width="487" height="3" x="247.5" y="156.5" rx="1.5" transform="rotate(45, 491, 158)" opacity="0.25"></rect><rect width="141" height="3" x="256.5" y="375.5" rx="1.5" transform="rotate(45, 327, 377)" opacity="0.97"></rect><rect width="310" height="3" x="-103" y="241.5" rx="1.5" transform="rotate(45, 52, 243)" opacity="0.45"></rect><rect width="45" height="3" x="432.5" y="69.5" rx="1.5" transform="rotate(45, 455, 71)" opacity="0.81"></rect><rect width="737" height="3" x="381.5" y="510.5" rx="1.5" transform="rotate(45, 750, 512)" opacity="0.20"></rect><rect width="286" height="3" x="305" y="637.5" rx="1.5" transform="rotate(45, 448, 639)" opacity="0.64"></rect><rect width="744" height="3" x="139" y="743.5" rx="1.5" transform="rotate(45, 511, 745)" opacity="0.89"></rect><rect width="600" height="3" x="-26" y="310.5" rx="1.5" transform="rotate(45, 274, 312)" opacity="0.55"></rect><rect width="660" height="3" x="37" y="572.5" rx="1.5" transform="rotate(45, 367, 574)" opacity="0.43"></rect><rect width="95" height="3" x="148.5" y="322.5" rx="1.5" transform="rotate(45, 196, 324)" opacity="0.93"></rect><rect width="281" height="3" x="343.5" y="542.5" rx="1.5" transform="rotate(45, 484, 544)" opacity="0.58"></rect><rect width="480" height="3" x="337" y="35.5" rx="1.5" transform="rotate(45, 577, 37)" opacity="0.37"></rect><rect width="416" height="3" x="-147" y="505.5" rx="1.5" transform="rotate(45, 61, 507)" opacity="0.57"></rect><rect width="361" height="3" x="449.5" y="127.5" rx="1.5" transform="rotate(45, 630, 129)" opacity="0.71"></rect><rect width="123" height="3" x="692.5" y="101.5" rx="1.5" transform="rotate(45, 754, 103)" opacity="0.34"></rect><rect width="451" height="3" x="-124.5" y="383.5" rx="1.5" transform="rotate(45, 101, 385)" opacity="0.27"></rect><rect width="276" height="3" x="8" y="248.5" rx="1.5" transform="rotate(45, 146, 250)" opacity="0.44"></rect><rect width="541" height="3" x="353.5" y="739.5" rx="1.5" transform="rotate(45, 624, 741)" opacity="0.85"></rect><rect width="45" height="3" x="656.5" y="39.5" rx="1.5" transform="rotate(45, 679, 41)" opacity="0.92"></rect><rect width="436" height="3" x="311" y="453.5" rx="1.5" transform="rotate(45, 529, 455)" opacity="0.95"></rect><rect width="336" height="3" x="547" y="247.5" rx="1.5" transform="rotate(45, 715, 249)" opacity="0.22"></rect><rect width="131" height="3" x="503.5" y="629.5" rx="1.5" transform="rotate(45, 569, 631)" opacity="0.11"></rect><rect width="413" height="3" x="178.5" y="62.5" rx="1.5" transform="rotate(45, 385, 64)" opacity="0.55"></rect><rect width="209" height="3" x="141.5" y="492.5" rx="1.5" transform="rotate(45, 246, 494)" opacity="0.89"></rect><rect width="418" height="3" x="41" y="74.5" rx="1.5" transform="rotate(45, 250, 76)" opacity="0.24"></rect><rect width="175" height="3" x="138.5" y="621.5" rx="1.5" transform="rotate(45, 226, 623)" opacity="0.83"></rect></g></svg>